<svg viewBox="0 0 512 512" xmlns="http://www.w3.org/2000/svg"><g id="outline"><path d="M424,24a8,8,0,0,0-8-8H88A40.045,40.045,0,0,0,48,56V456a40.045,40.045,0,0,0,40,40H416a8,8,0,0,0,8-8V256h64a8,8,0,0,0,6.656-12.438L481.615,224l13.041-19.562A8,8,0,0,0,488,192H424V176h48a8,8,0,0,0,6.656-12.438L465.615,144l13.041-19.562A8,8,0,0,0,472,112H424ZM80.871,33.081A23.9,23.9,0,0,1,88,32H408V48H216V64H408V80H88a24,24,0,0,1-7.129-46.919ZM64,456V87.978A39.788,39.788,0,0,0,88,96h8V480H88A24.028,24.028,0,0,1,64,456Zm200,24V448H248v32H232V400H216v28a3.983,3.983,0,0,1-1.2,2.855,3.9,3.9,0,0,1-2.88,1.145A4.29,4.29,0,0,1,208,427.6V400a16.019,16.019,0,0,1,16-16h64a16.019,16.019,0,0,1,16,16v27.6a4.29,4.29,0,0,1-3.922,4.4,4.032,4.032,0,0,1-2.88-1.145A3.983,3.983,0,0,1,296,428V400H280v80ZM232,344a24,24,0,1,1,24,24A24.028,24.028,0,0,1,232,344ZM408,480H296V447.6a19.964,19.964,0,0,0,4.371.393A20.3,20.3,0,0,0,320,427.6V400a32.036,32.036,0,0,0-32-32h-.022a40,40,0,1,0-63.956,0H224a32.036,32.036,0,0,0-32,32v27.6a20.035,20.035,0,0,0,24,20V480H112V96H408Zm65.052-272-7.708,11.562a8,8,0,0,0,0,8.876L473.052,240H424V208Zm-16-80-7.708,11.562a8,8,0,0,0,0,8.876L457.052,160H424V128Z"></path><rect height="16" width="32" x="88" y="48"></rect><rect height="16" width="40" x="152" y="48"></rect><path d="M296,176H280V160a8,8,0,0,0-8-8H240a8,8,0,0,0-8,8v16H216a8,8,0,0,0-8,8v32a8,8,0,0,0,8,8h16v16a8,8,0,0,0,8,8h32a8,8,0,0,0,8-8V224h16a8,8,0,0,0,8-8V184A8,8,0,0,0,296,176Zm-8,32H272a8,8,0,0,0-8,8v16H248V216a8,8,0,0,0-8-8H224V192h16a8,8,0,0,0,8-8V168h16v16a8,8,0,0,0,8,8h16Z"></path><path d="M256,112a88,88,0,1,0,88,88A88.1,88.1,0,0,0,256,112Zm0,160a72,72,0,1,1,72-72A72.081,72.081,0,0,1,256,272Z"></path><path d="M258.343,402.343,256,404.687l-2.343-2.344a8,8,0,0,0-11.314,11.314l8,8a8,8,0,0,0,11.314,0l8-8a8,8,0,0,0-11.314-11.314Z"></path></g></svg>